<?xml version="1.0" encoding="UTF-8" standalone="no"?>
<svg width="64px" height="64px" viewBox="0 0 64 64" version="1.1" xmlns="http://www.w3.org/2000/svg" xmlns:xlink="http://www.w3.org/1999/xlink" xmlns:sketch="http://www.bohemiancoding.com/sketch/ns">
    <!-- Generator: Sketch 3.5.1 (25234) - http://www.bohemiancoding.com/sketch -->
    <title>Car + Shape</title>
    <desc>Created with Sketch.</desc>
    <defs></defs>
    <g id="Page-1" stroke="none" stroke-width="1" fill="none" fill-rule="evenodd" sketch:type="MSPage">
        <g id="Desktop-Notification-7" sketch:type="MSArtboardGroup" transform="translate(-112.000000, -320.000000)">
            <g id="Notification" sketch:type="MSLayerGroup" transform="translate(80.000000, 142.000000)">
                <g id="Car-+-Shape" transform="translate(32.000000, 178.000000)" sketch:type="MSShapeGroup">
                    <rect id="Car" fill="#ECEFF2" x="0" y="0" width="64" height="64" rx="3"></rect>
                    <path d="M44.2617789,27.9194379 L41.7139453,21.3402024 C41.2374504,20.080739 40.1961862,19.0090139 38.2255549,19 L34.6324164,19 L28.4914443,19 L24.83583,19 C22.8742126,19.0090139 21.8329484,20.080739 21.3477504,21.3402024 L18.7992951,27.9194379 C17.7875594,28.0499844 15.9968958,29.2388906 16.000004,31.4911294 L16.000004,39.8681775 L18.4862942,39.8681775 L18.4862942,42.5422061 C18.4800777,45.8388174 23.1452521,45.7996534 23.1440088,42.5422061 L23.1440088,39.8681775 L31.5412605,39.8681775 L39.917376,39.8681775 L39.917376,42.5422061 C39.9276333,45.7996534 44.5928076,45.8388174 44.5959159,42.5422061 L44.5959159,39.8681775 L47.0825169,39.8681775 L47.0825169,31.4911294 C47.0747463,29.2388906 45.2828394,28.0499844 44.2617789,27.9194379 L44.2617789,27.9194379 Z M20.8883508,34.8129176 C19.6966473,34.8163367 18.7318461,33.8223179 18.7368193,32.5998427 C18.7318461,31.3689752 19.6966473,30.3740239 20.8883508,30.3842812 C22.0763245,30.3740239 23.0411257,31.3689752 23.0395716,32.5998427 C23.0411257,33.8223179 22.0760137,34.8160258 20.8883508,34.8129176 L20.8883508,34.8129176 Z M31.5412605,27.8575837 L31.5204352,27.8575837 L21.4521876,27.8575837 L23.3737086,22.6767504 C23.6055841,21.9413382 23.9655196,21.4151112 24.8156263,21.4023674 L31.5204352,21.4023674 L31.5412605,21.4023674 L38.2675163,21.4023674 C39.1045683,21.4151112 39.4654363,21.9410274 39.7085015,22.6767504 L41.6303333,27.8575837 L31.5412605,27.8575837 L31.5412605,27.8575837 Z M42.1944809,34.8129176 C40.9943851,34.8163367 40.0289623,33.8223179 40.0224349,32.5998427 C40.0289623,31.3689752 40.9943851,30.3740239 42.1944809,30.3842812 C43.3740623,30.3740239 44.3385527,31.3689752 44.3460125,32.5998427 C44.3385527,33.8223179 43.3740623,34.8160258 42.1944809,34.8129176 L42.1944809,34.8129176 Z" id="Shape" fill="#005374"></path>
                </g>
            </g>
        </g>
    </g>
</svg>