<?xml version="1.0" encoding="UTF-8" standalone="no"?>
<svg
   xmlns:dc="http://purl.org/dc/elements/1.1/"
   xmlns:cc="http://creativecommons.org/ns#"
   xmlns:rdf="http://www.w3.org/1999/02/22-rdf-syntax-ns#"
   xmlns:svg="http://www.w3.org/2000/svg"
   xmlns="http://www.w3.org/2000/svg"
   xmlns:sodipodi="http://sodipodi.sourceforge.net/DTD/sodipodi-0.dtd"
   xmlns:inkscape="http://www.inkscape.org/namespaces/inkscape"
   viewBox="0 0 64 64"
   enable-background="new 0 0 64 64"
   id="svg4268"
   version="1.1"
   inkscape:version="0.91 r"
   sodipodi:docname="plus.svg">
  <metadata
     id="metadata4276">
    <rdf:RDF>
      <cc:Work
         rdf:about="">
        <dc:format>image/svg+xml</dc:format>
        <dc:type
           rdf:resource="http://purl.org/dc/dcmitype/StillImage" />
        <dc:title></dc:title>
      </cc:Work>
    </rdf:RDF>
  </metadata>
  <defs
     id="defs4274" />
  <sodipodi:namedview
     pagecolor="#ffffff"
     bordercolor="#666666"
     borderopacity="1"
     objecttolerance="10"
     gridtolerance="10"
     guidetolerance="10"
     inkscape:pageopacity="0"
     inkscape:pageshadow="2"
     inkscape:window-width="1920"
     inkscape:window-height="1028"
     id="namedview4272"
     showgrid="false"
     inkscape:zoom="3.6875"
     inkscape:cx="-7.7288136"
     inkscape:cy="32"
     inkscape:window-x="0"
     inkscape:window-y="0"
     inkscape:window-maximized="1"
     inkscape:current-layer="svg4268" />
  <path
     fill="#405866"
     d="m58.18 25.98c-6.719 0-13.438 0-20.15 0 0-6.717 0-13.436 0-20.15 0-7.77-12.05-7.77-12.05 0 0 6.716 0 13.436 0 20.15-6.719 0-13.438 0-20.15 0-7.768 0-7.768 12.05 0 12.05 6.715 0 13.434 0 20.15 0 0 6.72 0 13.435 0 20.15 0 7.77 12.05 7.77 12.05 0 0-6.718 0-13.433 0-20.15 6.715 0 13.435 0 20.15 0 7.769 0 7.769-12.05 0-12.05"
     id="path4270"
     style="fill:#82a3bb;fill-opacity:1" />
</svg>
